<svg xmlns:xlink="http://www.w3.org/1999/xlink"  xmlns="http://www.w3.org/2000/svg" width="200" height="200" viewBox="0 0 200 200" fill="none"><mask id="mask0_10207_6053" style="mask-type:luminance" maskUnits="userSpaceOnUse" x="35" y="0" width="130" height="200"><path d="M164.283 0H35.5469V200H164.283V0Z" fill="white"/></mask><g mask="url(#mask0_10207_6053)"><path d="M99.9142 199.999C100.399 199.999 100.884 199.993 101.366 199.982C136.17 199.137 164.251 167.995 164.282 129.821C164.282 129.632 164.282 129.442 164.281 129.253C164.264 126.057 164.083 122.819 163.743 119.54C159.982 142.123 140.769 160.505 115.897 166.066C110.787 167.208 105.432 167.815 99.9147 167.815C94.4666 167.815 89.1767 167.223 84.1245 166.108C59.1583 160.599 39.8547 142.181 36.0841 119.54C35.7439 122.833 35.564 126.086 35.548 129.295C35.5474 129.471 35.547 129.647 35.5469 129.823C35.5768 167.993 63.6579 199.137 98.4625 199.982C98.945 199.993 99.4291 199.999 99.9142 199.999Z" fill="url(#paint0_linear_10207_6053)"/><path d="M101.723 2.08267L99.9143 0L98.2124 2.08267C86.96 14.9497 77.2805 27.7094 68.8545 40.2299C82.6274 55.862 95.3632 76.628 100.009 85.057C116.214 110.851 116.359 133.151 116.149 152.992C116.125 155.219 116.101 157.43 116.101 159.63C116.101 161.82 116.032 163.97 115.897 166.066C140.769 160.506 159.982 142.123 163.743 119.54C160.053 84.0032 137.95 43.6864 101.723 2.08267Z" fill="url(#paint1_linear_10207_6053)"/><path d="M84.1255 166.109C83.9894 164.001 83.9186 161.838 83.9186 159.635C83.9186 157.436 83.8951 155.226 83.8717 152.999C83.6615 133.159 83.8066 110.845 100.011 85.0574C95.3641 76.6284 82.6282 55.8624 68.8553 40.2302C50.0472 68.1776 38.6191 95.0017 36.085 119.541C39.8556 142.182 59.1592 160.6 84.1255 166.109Z" fill="url(#paint2_linear_10207_6053)"/></g><defs><linearGradient id="paint0_linear_10207_6053" x1="35.5469" y1="119.54" x2="164.282" y2="119.54" gradientUnits="userSpaceOnUse"><stop stop-color="#54CB76"/><stop offset="1" stop-color="#8CE2A6"/></linearGradient><linearGradient id="paint1_linear_10207_6053" x1="116.298" y1="0" x2="116.298" y2="166.066" gradientUnits="userSpaceOnUse"><stop stop-color="#7DD474"/><stop offset="1" stop-color="#59C04F"/></linearGradient><linearGradient id="paint2_linear_10207_6053" x1="68.0478" y1="40.2302" x2="68.0478" y2="166.109" gradientUnits="userSpaceOnUse"><stop stop-color="#90E342"/><stop offset="1" stop-color="#AEEC66"/></linearGradient></defs></svg>